<svg xmlns="http://www.w3.org/2000/svg" width="1080" height="1080" viewBox="200 200 680 680">
  <path d="M540,220.557c175.228,0,319.443,142.664,319.443,319.443S715.229,859.443,540,859.443a319.443,319.443,0,1,1,0-638.886Zm0,279.126A40.038,40.038,0,0,0,499.682,540c0,23.26,17.059,40.319,40.319,40.319A40.038,40.038,0,0,0,580.318,540c0-21.709-18.608-40.317-40.317-40.317ZM553.957,533.8c-4.652,0-9.3-3.1-9.3-7.753s4.652-9.3,9.3-9.3,7.753,4.652,7.753,9.3a7.325,7.325,0,0,1-7.753,7.753Zm100.8-214H423.7c-12.4,0-21.709,9.3-21.709,21.711V738.488c0,12.407,9.3,21.711,21.709,21.711H654.753c12.4,0,23.26-9.3,23.26-21.711V341.512c0-12.407-10.856-21.711-23.26-21.711ZM540,606.68a66.68,66.68,0,1,0,0-133.36c-37.218,0-68.231,29.464-68.231,66.68S502.783,606.68,540,606.68Zm0-125.607A58.9,58.9,0,0,1,598.926,540c0,32.564-26.361,60.476-58.925,60.476A60.553,60.553,0,0,1,479.522,540c0-32.564,26.364-58.927,60.479-58.927Zm0-35.665c-52.724,0-96.143,41.868-96.143,94.592S487.277,634.592,540,634.592c51.172,0,94.592-41.868,94.592-94.592S591.173,445.408,540,445.408Zm0,182.983c-48.072,0-88.391-40.319-88.391-88.391S491.929,453.161,540,453.161A86.694,86.694,0,0,1,626.838,540c0,48.072-38.765,88.391-86.837,88.391Z" fill-rule="evenodd"/>
</svg>
